<svg id="Layer_1" data-name="Layer 1" xmlns="http://www.w3.org/2000/svg" viewBox="0 0 394 79.4"><defs><style>.cls-1{fill:#fff;}</style></defs><path class="cls-1" d="M262,0h68.5V12.7H303.3V79.3H289.7V12.7H262ZM149,0V12.7H94V33.1h44.3V45.7H94v21h55V79.3H80.5V0H149Zm34.3,0H165.5l63.8,79.4h17.9l-32-39.7L247.2.1H229.3l-23,28.6L183.3.1Zm18.3,56.7-9-11L165.5,79.4h17.8Z" transform="translate(0 0)"/><path class="cls-1" d="M81,79.3,17,0H0V79.3H13.6V17L63.8,79.3Zm252.6-.4a3.74,3.74,0,0,1-2.5-1,3.47,3.47,0,0,1-1.1-2.6,3.32,3.32,0,0,1,1-2.5,3.54,3.54,0,0,1,2.6-1,3.32,3.32,0,0,1,2.5,1,3.4,3.4,0,0,1,.6,4.3,3.72,3.72,0,0,1-3,1.8Zm23.2-33.5h6V68.7a10.67,10.67,0,0,1-1.3,5.5,9.1,9.1,0,0,1-3.8,3.5A12.61,12.61,0,0,1,352,79a14.71,14.71,0,0,1-5.3-1,7.7,7.7,0,0,1-3.7-3.2,8.68,8.68,0,0,1-1.4-5h6a5.19,5.19,0,0,0,.7,2.2,4.57,4.57,0,0,0,1.6,1.5,4.71,4.71,0,0,0,2.4.5,4.27,4.27,0,0,0,2.4-.6,4,4,0,0,0,1.6-1.8,8.53,8.53,0,0,0,.5-3V45.4Zm30.9,9.1a4.38,4.38,0,0,0-2-3.3,7.49,7.49,0,0,0-4.3-1.1,10.42,10.42,0,0,0-3.3.5,4.73,4.73,0,0,0-2,1.6,3.5,3.5,0,0,0-.3,4,3,3,0,0,0,1.3,1.2l1.8,1,2,.5,3.2.8a22.85,22.85,0,0,1,3.7,1.2,13.1,13.1,0,0,1,3.2,1.8,8.1,8.1,0,0,1,3,6.5,8.54,8.54,0,0,1-1.5,5.1,10,10,0,0,1-4.4,3.5,16.9,16.9,0,0,1-6.8,1.2,17.58,17.58,0,0,1-6.8-1.2,9.54,9.54,0,0,1-6.2-9.1h6a5,5,0,0,0,3.5,4.6,9.34,9.34,0,0,0,3.4.6,9.51,9.51,0,0,0,3.5-.6,6.14,6.14,0,0,0,2.4-1.7,4,4,0,0,0,.8-2.4,3.23,3.23,0,0,0-.7-2.2,10.53,10.53,0,0,0-2.1-1.4l-3.2-1-3.8-1a14.58,14.58,0,0,1-6.6-3.2,7.19,7.19,0,0,1-2.4-5.7,8,8,0,0,1,1.7-5,10,10,0,0,1,4.3-3.5,16.58,16.58,0,0,1,6.4-1.2,15.24,15.24,0,0,1,6.2,1.2,11.23,11.23,0,0,1,4.3,3.4,8.24,8.24,0,0,1,1.5,5h-5.8Z" transform="translate(0 0)"/></svg>